<?xml version="1.0" standalone="no"?>
<!DOCTYPE svg PUBLIC "-//W3C//DTD SVG 20010904//EN"
 "http://www.w3.org/TR/2001/REC-SVG-20010904/DTD/svg10.dtd">
<svg version="1.0" xmlns="http://www.w3.org/2000/svg"
 width="569.000000pt" height="571.000000pt" viewBox="0 0 569.000000 571.000000"
 preserveAspectRatio="xMidYMid meet">

<g transform="translate(0.000000,571.000000) scale(0.100000,-0.100000)"
fill="#000000" stroke="none">
<path d="M3811 5114 c-191 -39 -204 -43 -135 -41 29 1 50 5 47 10 -2 4 8 7 22
7 17 0 24 -4 19 -12 -4 -7 -3 -8 5 -4 6 4 8 12 5 18 -5 7 -1 9 9 5 9 -3 19 -2
22 3 4 6 12 10 18 10 7 -1 1 -10 -12 -20 -13 -11 -18 -20 -13 -20 6 0 14 5 17
11 4 6 13 8 21 5 8 -3 11 0 7 10 -6 17 8 19 25 2 8 -8 12 -9 12 -1 0 6 -6 13
-12 16 -7 3 1 5 19 4 19 0 30 -4 26 -10 -3 -6 -1 -7 6 -3 6 4 9 11 6 15 -5 9
66 21 122 21 19 0 41 -7 49 -15 9 -8 23 -15 32 -14 12 0 11 3 -5 9 -31 13 -29
20 5 17 46 -5 57 -17 32 -34 -15 -11 -28 -12 -48 -5 -21 7 -31 6 -41 -5 -12
-13 -11 -14 10 -8 19 5 21 4 9 -4 -8 -6 -32 -9 -52 -5 -23 3 -38 2 -38 -4 0
-11 -85 -32 -130 -32 -19 0 -30 -5 -30 -14 0 -10 -26 -16 -92 -24 -114 -13
-185 -27 -263 -53 -33 -10 -75 -19 -92 -19 -18 0 -33 -5 -33 -11 0 -7 -17 -10
-44 -8 -24 2 -42 1 -40 -3 5 -8 -85 -28 -126 -28 -18 0 -30 -5 -30 -13 0 -9
-29 -17 -92 -25 -126 -16 -192 -30 -263 -53 -33 -10 -75 -19 -92 -19 -18 0
-33 -5 -33 -11 0 -7 -17 -10 -44 -8 -24 2 -42 1 -40 -3 5 -8 -85 -28 -126 -28
-18 0 -30 -5 -30 -13 0 -9 -29 -17 -92 -25 -126 -16 -192 -30 -263 -53 -33
-10 -75 -19 -92 -19 -18 0 -33 -4 -33 -10 0 -5 -13 -10 -30 -10 -16 0 -55 -7
-87 -15 -31 -8 -72 -15 -90 -15 -22 0 -33 -5 -33 -14 0 -19 -159 -34 -170 -16
-6 9 -9 9 -12 -1 -7 -18 7 -44 118 -230 51 -86 105 -181 119 -212 52 -113 41
-260 -28 -376 -115 -191 -369 -238 -557 -103 -74 53 -94 81 -260 352 -79 129
-150 246 -159 260 -8 14 -11 22 -7 18 5 -4 21 1 36 12 16 11 33 20 39 20 10 0
28 54 24 70 -1 3 6 6 16 6 12 0 18 -7 17 -21 -1 -13 4 -19 14 -17 8 2 12 0 8
-3 -9 -9 19 -65 32 -65 6 0 9 -3 8 -8 -2 -4 57 -107 129 -229 147 -245 180
-283 273 -310 150 -44 291 69 289 231 -1 69 -10 97 -59 179 -19 32 -39 66 -45
75 -67 113 -119 191 -126 186 -5 -3 -6 1 -3 9 3 8 -3 23 -13 32 -10 10 -18 23
-18 29 -1 6 -6 10 -12 9 -6 -1 -10 4 -9 12 0 8 -3 13 -9 12 -5 -1 -9 -11 -8
-22 2 -17 0 -16 -12 5 -8 14 -14 19 -15 13 0 -8 -15 -13 -40 -13 -22 0 -40 -5
-40 -11 0 -7 -17 -10 -44 -8 -24 2 -42 1 -40 -3 5 -8 -85 -28 -126 -28 -19 0
-30 -5 -30 -14 0 -16 -136 -32 -192 -22 -21 4 -26 3 -14 -2 29 -13 6 -23 -64
-29 -33 -3 -57 -10 -54 -14 7 -12 -7 -11 -26 1 -13 8 -12 10 3 10 11 0 15 4
11 12 -4 6 -3 8 4 4 6 -3 13 -2 16 2 3 5 17 8 31 7 14 -2 23 1 19 6 -8 13 10
11 26 -3 12 -11 12 -10 2 4 -10 13 -10 17 0 22 7 3 2 3 -11 0 -41 -10 -14 14
45 41 60 27 79 31 68 13 -4 -7 -3 -8 5 -4 6 4 9 11 6 16 -3 5 3 8 12 8 10 -1
27 2 39 5 15 5 21 3 21 -8 0 -10 -6 -14 -16 -10 -12 5 -13 3 -5 -5 6 -6 19 -8
28 -4 14 5 15 9 4 15 -10 7 -11 9 0 9 7 0 10 5 7 11 -4 6 -1 9 6 8 8 -1 25 1
39 5 14 4 36 8 50 10 14 1 32 6 39 10 7 4 15 5 18 2 3 -3 12 -1 19 5 16 13
114 18 139 7 19 -9 19 -8 2 5 -16 13 -16 15 -1 21 25 10 41 7 24 -5 -13 -9
-13 -10 0 -6 8 2 15 10 15 18 0 17 12 19 -245 -36 -262 -55 -331 -85 -424
-177 -55 -55 -116 -142 -88 -124 6 4 14 2 17 -4 4 -6 3 -10 -2 -9 -21 4 -31
-3 -42 -27 -6 -14 -9 -30 -6 -35 4 -5 2 -9 -3 -9 -14 0 -32 -95 -32 -167 0
-38 16 -139 39 -246 22 -100 92 -420 156 -712 64 -291 199 -917 300 -1390 101
-473 191 -879 199 -902 41 -115 131 -217 241 -274 152 -79 227 -79 585 -5 445
92 2471 523 2706 575 235 52 301 76 382 141 63 51 135 156 162 239 43 129 40
145 -160 1081 -100 465 -189 888 -200 940 -10 52 -82 386 -159 743 -127 588
-143 654 -177 718 -43 81 -126 175 -145 164 -7 -5 -10 -4 -5 3 8 13 -60 56
-75 46 -7 -4 -9 -3 -6 3 9 14 -36 33 -64 26 -20 -4 -21 -3 -9 6 12 9 9 10 -15
5 -24 -4 -27 -3 -15 6 13 10 13 11 -2 6 -10 -3 -20 -1 -23 4 -13 22 -189 9
-354 -26z m389 -8 c0 -2 -11 -11 -25 -20 -28 -19 -33 -15 -9 8 14 15 34 22 34
12z m-2609 -619 c-10 -9 -11 -8 -5 6 3 10 9 15 12 12 3 -3 0 -11 -7 -18z m-41
-27 c0 -5 -2 -10 -4 -10 -3 0 -8 5 -11 10 -3 6 -1 10 4 10 6 0 11 -4 11 -10z
m41 -37 c13 -16 12 -17 -3 -4 -17 13 -22 21 -14 21 2 0 10 -8 17 -17z m-906
-53 c-3 -5 -11 -10 -16 -10 -6 0 -7 5 -4 10 3 6 11 10 16 10 6 0 7 -4 4 -10z
m-52 -73 c4 3 7 4 7 1 0 -3 -8 -12 -17 -19 -10 -7 -15 -9 -11 -5 4 5 2 16 -5
25 -10 14 -10 14 4 4 9 -7 19 -10 22 -6z m-39 -15 c3 -5 -1 -9 -9 -9 -8 0 -12
4 -9 9 3 4 7 8 9 8 2 0 6 -4 9 -8z m3374 -88 c82 -34 135 -115 135 -204 0
-124 -97 -220 -222 -220 -66 0 -146 42 -185 98 -38 54 -47 140 -21 207 19 50
82 110 130 124 48 14 123 12 163 -5z m-3428 -27 c0 -7 -4 -6 -10 3 -8 12 -10
12 -10 1 0 -8 -3 -12 -6 -8 -9 9 6 28 17 22 5 -4 9 -12 9 -18z m2804 -102 c38
-8 71 -17 74 -20 5 -5 -6 -49 -44 -182 l-15 -52 -87 2 c-107 2 -143 -15 -168
-80 -16 -41 -16 -49 5 -155 12 -62 23 -113 24 -114 1 -1 76 14 166 33 90 19
165 33 166 31 4 -4 -31 -257 -36 -262 -2 -1 -53 -13 -114 -26 -60 -13 -113
-26 -117 -29 -4 -4 39 -225 96 -491 126 -588 124 -580 121 -580 -2 0 -76 -16
-166 -35 -90 -19 -167 -35 -170 -35 -3 0 -57 237 -120 526 -62 289 -116 529
-119 534 -3 4 -29 4 -59 -2 -29 -5 -55 -8 -57 -6 -6 7 -52 232 -49 239 2 3 29
11 60 18 l55 12 -6 42 c-3 23 -10 58 -15 77 -5 19 -12 78 -16 131 -5 81 -3
107 16 166 33 110 119 195 241 238 100 35 226 43 334 20z m825 -540 c17 -82
80 -379 140 -660 60 -280 108 -511 107 -512 -4 -5 -348 -75 -350 -71 -2 1 -26
111 -54 243 -28 132 -92 429 -142 659 -50 230 -88 421 -86 423 9 9 341 79 348
74 3 -3 20 -73 37 -156z m-1958 -317 c175 -64 288 -174 375 -364 51 -110 76
-228 76 -359 0 -391 -214 -625 -587 -642 -191 -9 -302 32 -431 161 -110 111
-176 243 -215 431 -19 91 -16 287 5 364 59 215 227 378 439 427 94 21 255 13
338 -18z m2284 -1190 c2 -7 11 -38 20 -69 l15 -55 51 6 51 7 -6 -40 c-9 -52
-11 -54 -46 -62 -16 -4 -32 -10 -35 -15 -5 -9 38 -218 56 -269 12 -33 13 -33
59 -28 46 6 49 5 61 -25 12 -29 11 -33 -14 -53 -51 -44 -166 -44 -207 0 -17
18 -32 63 -55 170 -40 177 -39 173 -66 177 -16 2 -25 13 -32 37 -7 30 -5 37
13 51 20 15 21 20 11 75 -15 82 -16 81 37 92 67 15 82 15 87 1z m-340 -232
c40 -17 41 -22 18 -71 -17 -35 -17 -35 -69 -29 -44 6 -55 3 -73 -15 -28 -28
-28 -109 1 -197 33 -100 76 -117 154 -58 36 28 52 25 88 -15 19 -21 19 -22
-10 -52 -58 -62 -149 -88 -231 -68 -146 37 -222 289 -128 430 48 73 169 109
250 75z m-1645 -106 c45 -45 13 -130 -49 -130 -44 0 -62 10 -76 44 -14 34 -5
73 22 94 26 19 80 15 103 -8z m1060 -38 c44 -22 72 -63 103 -157 l26 -75 -22
-5 c-66 -16 -247 -55 -251 -55 -17 0 -2 -46 23 -71 46 -45 115 -35 181 27 l25
23 29 -36 c22 -27 27 -40 19 -52 -19 -31 -104 -80 -159 -91 -156 -33 -277 77
-291 265 -5 63 -2 79 20 128 50 111 181 154 297 99z m-1355 -385 c42 -191 74
-351 71 -356 -3 -5 -34 -12 -68 -15 -35 -4 -70 -13 -78 -20 -19 -16 -76 -36
-104 -36 -80 0 -160 58 -196 143 -28 63 -38 187 -20 241 26 79 103 135 188
136 23 0 42 5 42 11 0 5 -9 55 -21 110 -11 56 -19 102 -17 104 4 4 122 32 125
30 2 -1 37 -157 78 -348z m875 279 c0 -60 -8 -76 -37 -76 -24 0 -73 -40 -73
-60 0 -9 51 -256 65 -316 4 -19 -2 -23 -43 -33 -26 -7 -55 -14 -64 -17 -20 -6
-24 6 -67 211 -16 77 -40 170 -54 207 l-24 68 41 11 c22 5 48 12 57 15 9 2 24
-5 34 -16 18 -20 18 -20 56 15 29 26 48 35 74 35 35 0 35 0 35 -44z m-472
-303 c28 -136 50 -248 48 -250 -6 -7 -120 -32 -124 -28 -4 4 -111 489 -109
491 2 1 118 31 128 33 3 1 28 -110 57 -246z"/>
<path d="M1941 2960 c-77 -19 -124 -79 -141 -182 -12 -68 -11 -82 19 -226 46
-225 100 -366 157 -411 42 -33 101 -45 157 -32 63 14 94 36 120 85 20 37 22
55 21 181 -1 117 -5 156 -26 235 -49 181 -107 299 -163 332 -38 21 -99 29
-144 18z"/>
<path d="M3440 1563 c-29 -11 -50 -36 -50 -62 0 -47 11 -53 71 -40 30 6 57 14
62 18 11 11 -13 70 -33 81 -20 11 -27 11 -50 3z"/>
<path d="M1969 1218 c-16 -30 -7 -164 15 -211 26 -53 79 -62 130 -22 19 14 18
17 -4 122 -13 59 -30 114 -39 121 -8 6 -32 12 -53 12 -28 0 -40 -5 -49 -22z"/>
<path d="M4028 5113 c7 -3 16 -2 19 1 4 3 -2 6 -13 5 -11 0 -14 -3 -6 -6z"/>
<path d="M3958 5103 c13 -3 19 -9 16 -15 -4 -7 -2 -8 5 -4 17 11 3 26 -22 25
-22 -2 -22 -2 1 -6z"/>
<path d="M4008 5093 c7 -3 16 -2 19 1 4 3 -2 6 -13 5 -11 0 -14 -3 -6 -6z"/>
<path d="M3580 5066 c0 -9 30 -14 35 -6 4 6 -3 10 -14 10 -12 0 -21 -2 -21 -4z"/>
<path d="M3518 5053 c-16 -2 -28 -8 -28 -13 0 -5 17 -4 38 2 61 17 57 21 -10
11z"/>
<path d="M3625 5040 c-3 -5 -2 -10 4 -10 5 0 13 5 16 10 3 6 2 10 -4 10 -5 0
-13 -4 -16 -10z"/>
<path d="M3450 5030 c0 -5 7 -7 15 -4 8 4 15 8 15 10 0 2 -7 4 -15 4 -8 0 -15
-4 -15 -10z"/>
<path d="M3545 5030 c-3 -5 -3 -14 0 -20 7 -11 -8 -14 -18 -3 -9 9 -57 11 -51
2 2 -4 -1 -9 -7 -11 -6 -2 17 -3 50 -3 48 0 58 3 46 11 -22 16 -18 26 8 19 17
-5 19 -4 7 4 -19 13 -27 14 -35 1z"/>
<path d="M3408 5023 c6 -2 18 -2 25 0 6 3 1 5 -13 5 -14 0 -19 -2 -12 -5z"/>
<path d="M3650 5020 c0 -5 7 -7 15 -4 8 4 15 8 15 10 0 2 -7 4 -15 4 -8 0 -15
-4 -15 -10z"/>
<path d="M3365 5010 c4 -6 11 -8 16 -5 14 9 11 15 -7 15 -8 0 -12 -5 -9 -10z"/>
<path d="M3310 5006 c0 -2 11 -6 25 -8 13 -3 22 -1 19 3 -5 9 -44 13 -44 5z"/>
<path d="M3278 4993 c7 -3 16 -2 19 1 4 3 -2 6 -13 5 -11 0 -14 -3 -6 -6z"/>
<path d="M3205 4983 c-11 -3 -24 -9 -29 -14 -8 -7 45 3 79 16 15 5 -27 4 -50
-2z"/>
<path d="M3135 4960 c-3 -5 -2 -10 4 -10 6 0 19 -10 31 -22 13 -14 20 -17 20
-8 0 11 3 11 12 2 7 -7 19 -12 28 -11 12 0 -9 13 -40 24 -27 9 -39 19 -34 26
3 5 1 9 -5 9 -5 0 -13 -4 -16 -10z"/>
<path d="M3098 4953 c7 -3 16 -2 19 1 4 3 -2 6 -13 5 -11 0 -14 -3 -6 -6z"/>
<path d="M3255 4950 c-3 -6 1 -7 9 -4 18 7 21 14 7 14 -6 0 -13 -4 -16 -10z"/>
<path d="M3035 4941 c-3 -5 0 -13 6 -17 7 -4 9 -3 5 4 -3 6 2 13 11 15 16 4
16 5 1 6 -9 0 -19 -3 -23 -8z"/>
<path d="M3220 4940 c0 -5 5 -10 11 -10 5 0 7 5 4 10 -3 6 -8 10 -11 10 -2 0
-4 -4 -4 -10z"/>
<path d="M2998 4933 c7 -3 16 -2 19 1 4 3 -2 6 -13 5 -11 0 -14 -3 -6 -6z"/>
<path d="M2958 4923 c7 -3 16 -2 19 1 4 3 -2 6 -13 5 -11 0 -14 -3 -6 -6z"/>
<path d="M2810 4893 c0 -5 11 -9 25 -9 14 -1 22 2 19 7 -6 11 -44 12 -44 2z"/>
<path d="M2765 4881 c3 -6 -3 -15 -14 -21 -12 -6 -22 -6 -26 -1 -3 5 2 12 10
14 11 3 10 4 -2 3 -10 -1 -17 -8 -15 -14 1 -7 -2 -12 -8 -12 -5 0 -10 5 -10
10 0 6 -8 10 -17 10 -13 0 -10 -6 12 -20 19 -12 33 -16 39 -10 13 13 29 13 21
0 -3 -5 -2 -10 4 -10 5 0 12 4 16 10 3 5 12 7 20 3 8 -3 15 0 15 5 0 6 -12 9
-27 6 -23 -4 -25 -3 -13 10 7 9 17 13 23 9 6 -3 7 -1 3 5 -4 7 -14 12 -22 12
-8 0 -13 -4 -9 -9z"/>
<path d="M2825 4860 c-8 -13 5 -13 25 0 13 8 13 10 -2 10 -9 0 -20 -4 -23 -10z"/>
<path d="M2626 4851 c-4 -5 3 -7 14 -4 23 6 26 13 6 13 -8 0 -17 -4 -20 -9z"/>
<path d="M2538 4833 c7 -3 16 -2 19 1 4 3 -2 6 -13 5 -11 0 -14 -3 -6 -6z"/>
<path d="M2490 4820 c0 -5 4 -10 9 -10 6 0 13 5 16 10 3 6 -1 10 -9 10 -9 0
-16 -4 -16 -10z"/>
<path d="M2450 4813 c8 -3 21 -10 28 -16 9 -7 11 -6 6 7 -3 9 -16 16 -28 15
-14 0 -16 -2 -6 -6z"/>
<path d="M2395 4800 c3 -5 12 -7 20 -3 21 7 19 13 -6 13 -11 0 -18 -4 -14 -10z"/>
<path d="M2515 4799 c-11 -16 -1 -19 13 -3 7 8 8 14 3 14 -5 0 -13 -5 -16 -11z"/>
<path d="M2360 4790 c20 -13 33 -13 25 0 -3 6 -14 10 -23 10 -15 0 -15 -2 -2
-10z"/>
<path d="M2547 4793 c-4 -3 -7 -11 -7 -17 0 -6 5 -5 12 2 6 6 9 14 7 17 -3 3
-9 2 -12 -2z"/>
<path d="M2308 4783 c6 -2 18 -2 25 0 6 3 1 5 -13 5 -14 0 -19 -2 -12 -5z"/>
<path d="M2472 4774 c10 -10 20 -16 22 -13 3 3 -5 11 -17 18 -21 13 -21 12 -5
-5z"/>
<path d="M2250 4771 c0 -5 -8 -7 -17 -5 -10 2 -31 0 -48 -5 -26 -8 -24 -9 21
-7 28 2 56 6 62 10 6 4 22 2 34 -4 22 -11 22 -10 4 4 -22 17 -56 21 -56 7z"/>
<path d="M2408 4773 c7 -3 16 -2 19 1 4 3 -2 6 -13 5 -11 0 -14 -3 -6 -6z"/>
<path d="M1775 4674 c-187 -40 -341 -73 -342 -74 -5 -1 42 -69 48 -70 9 0 31
52 24 58 -3 4 -8 -4 -12 -16 -3 -12 -10 -22 -15 -22 -5 0 -6 10 -3 23 4 15 3
18 -3 8 -6 -9 -12 -10 -16 -3 -7 12 11 17 169 50 55 12 111 24 125 27 14 3 57
12 95 21 67 14 96 20 140 27 11 2 25 5 30 9 22 12 64 17 70 8 3 -5 16 -10 28
-9 20 0 21 1 3 8 -14 5 -16 10 -8 15 7 4 16 5 21 1 5 -3 12 -1 16 5 10 16 -9
12 -370 -66z"/>
<path d="M2085 4690 c-4 -6 -11 -8 -16 -5 -5 4 -16 2 -25 -3 -12 -6 -8 -9 15
-9 17 0 31 4 31 8 0 4 8 10 18 12 15 4 15 5 0 6 -9 0 -20 -4 -23 -9z"/>
<path d="M2145 4689 c-4 -6 -5 -12 -2 -15 2 -3 7 2 10 11 7 17 1 20 -8 4z"/>
<path d="M1940 4676 c4 -4 16 -4 26 2 16 9 14 10 -8 9 -15 -1 -23 -6 -18 -11z"/>
<path d="M1788 4643 c7 -3 16 -2 19 1 4 3 -2 6 -13 5 -11 0 -14 -3 -6 -6z"/>
<path d="M1725 4630 c5 -9 1 -10 -16 -6 -13 3 -19 3 -12 0 7 -3 11 -11 9 -17
-1 -7 -1 -8 2 -4 2 4 11 2 20 -5 14 -11 15 -10 9 6 -6 14 -4 17 8 12 22 -8 18
2 -6 15 -17 8 -20 8 -14 -1z"/>
<path d="M1654 4615 c-10 -8 -14 -15 -8 -15 6 0 17 7 24 15 16 19 9 19 -16 0z"/>
<path d="M1790 4620 c-21 -7 -21 -8 -5 -9 11 0 27 4 35 9 18 11 5 11 -30 0z"/>
<path d="M1607 4599 c7 -7 15 -10 18 -7 3 3 -2 9 -12 12 -14 6 -15 5 -6 -5z"/>
<path d="M1277 4523 c-3 -4 1 -17 9 -28 14 -19 15 -19 11 2 -4 26 -13 38 -20
26z"/>
<path d="M1005 4450 c4 -6 11 -8 16 -5 14 9 11 15 -7 15 -8 0 -12 -5 -9 -10z"/>
<path d="M1040 4440 c-18 -12 -2 -12 25 0 13 6 15 9 5 9 -8 0 -22 -4 -30 -9z"/>
<path d="M830 4299 c0 -5 5 -7 10 -4 6 3 10 8 10 11 0 2 -4 4 -10 4 -5 0 -10
-5 -10 -11z"/>
</g>
</svg>
